# xmcd
#
# Track frame offsets:
#	150
#	19263
#	31869
#	59802
#	80139
#	105124
#	119692
#	128229
#	146583
#	162351
#	185685
#	204280
#
# Disc length: 2830 seconds
# Revision: 0
# Processed by: cddbd v1.5.2PL0 Copyright (c) Steve Scherf et al.
# Submitted via: dBpowerAMP V12.0
#
DISCID=aa0b0c0c
DTITLE=Mary Flower - Misery Loves Company
DYEAR=2011
DGENRE=Blues
TTITLE0=Hard Day Blues
TTITLE1=Recession Rag
TTITLE2=Death Letter Blues
TTITLE3=Jitters
TTITLE4=Way Down in the Bottom
TTITLE5=Gonna Sit Down on the Banks of the River
TTITLE6=Boogie Woogie Dance
TTITLE7=I'm Dreaming of Your Demise
TTITLE8=Miss Delta
TTITLE9=Devil's Punchbowl
TTITLE10=Shake Sugaree
TTITLE11=Scrapper's Blues
EXTD=
EXTT0=
EXTT1=
EXTT2=
EXTT3=
EXTT4=
EXTT5=
EXTT6=
EXTT7=
EXTT8=
EXTT9=
EXTT10=
EXTT11=
PLAYORDER=
